# xmcd CD database file
#
# Track frame offsets:
#	150
#	14462
#	29733
#	42234
#	70042
#	83251
#	99239
#	110396
#	123931
#	141665
#	160399
#	172549
#	190207
#	205653
#	225355
#	236616
#	257488
#	269746
#	285660
#	303810
#	323107
#
# Disc length: 4514 seconds
#
# Revision: 0
# Processed by: cddbd v1.4PL0 Copyright (c) Steve Scherf et al.
# Submitted via: CDex 1.50
#
DISCID=1311a015
DTITLE=Sonny Terry and Brownie McGhee - Back To New Orleans
DYEAR=1900
DGENRE=Blues
TTITLE0=Let Me Be Your Little Dog
TTITLE1=Pawn Shop
TTITLE2=You Don't Know
TTITLE3=Betty And Dupree's Blues
TTITLE4=Back To New Orleans
TTITLE5=Stranger Here
TTITLE6=Fox Hunt
TTITLE7=I'm Prison Bound
TTITLE8=Louise, Louise
TTITLE9=Baby How Long
TTITLE10=Freight Train
TTITLE11=I Got A Woman
TTITLE12=Hold Me In Your Arms
TTITLE13=The CC and O Blues
TTITLE14=The Devil's Gonna Get You
TTITLE15=Don't You Lie To Me
TTITLE16=That's Why I'm Walking
TTITLE17=Wrong Track
TTITLE18=Blue Feeling
TTITLE19=House Lady
TTITLE20=I Know Better
EXTD=
EXTT0=
EXTT1=
EXTT2=
EXTT3=
EXTT4=
EXTT5=
EXTT6=
EXTT7=
EXTT8=
EXTT9=
EXTT10=
EXTT11=
EXTT12=
EXTT13=
EXTT14=
EXTT15=
EXTT16=
EXTT17=
EXTT18=
EXTT19=
EXTT20=
PLAYORDER=
